<?xml version="1.0" standalone="no"?>
<!DOCTYPE svg PUBLIC "-//W3C//DTD SVG 20010904//EN"
 "http://www.w3.org/TR/2001/REC-SVG-20010904/DTD/svg10.dtd">
<svg version="1.0" xmlns="http://www.w3.org/2000/svg"
 width="500.000000pt" height="500.000000pt" viewBox="0 0 500.000000 500.000000"
 preserveAspectRatio="xMidYMid meet">
<metadata>
Created by potrace 1.11, written by Peter Selinger 2001-2013
</metadata>
<g transform="translate(0.000000,500.000000) scale(0.100000,-0.100000)"
fill="#000000" stroke="none">
<path d="M3004 3364 c-27 -25 -91 -84 -141 -131 l-93 -86 0 -82 0 -83 -42 0
c-24 0 -49 -1 -55 -1 -10 -1 -13 -36 -13 -141 l0 -139 55 2 55 3 0 -423 0
-423 234 0 234 0 0 623 c0 342 1 628 1 635 1 9 42 12 172 12 l170 0 -2 110
c-1 61 1 113 3 116 3 2 3 16 0 29 l-4 25 -263 0 -262 0 -49 -46z"/>
<path d="M3959 3360 c-30 -28 -93 -87 -141 -132 l-88 -82 0 -82 0 -83 -37 1
c-79 2 -73 13 -73 -141 l0 -140 55 2 55 3 0 -91 c0 -49 0 -240 0 -422 l0 -333
234 0 234 0 0 598 c0 328 1 614 1 635 l1 37 170 0 170 0 0 140 0 140 -264 0
-264 0 -53 -50z"/>
<path d="M4683 3372 c-10 -6 -24 -232 -21 -327 0 -11 1 -107 2 -213 l1 -194
-37 -34 c-23 -20 -49 -34 -65 -35 -16 -1 -68 -2 -118 -4 -49 -1 -95 -3 -100
-4 -7 0 -10 -128 -11 -369 0 -500 25 -466 -341 -466 -159 0 -243 -4 -244 -11
-7 -64 20 -118 72 -143 32 -16 65 -18 305 -17 295 0 290 -1 340 64 18 25 19
45 19 398 0 205 2 373 5 374 3 0 57 2 121 3 129 3 162 15 194 69 15 25 18 56
18 206 0 108 -4 184 -10 196 -8 14 -8 26 -1 39 6 11 10 92 10 196 0 204 -6
226 -77 260 -47 23 -46 22 -62 12z"/>
<path d="M336 3126 l-141 -141 -1 -156 -1 -157 140 -138 141 -139 297 0 c164
0 300 -3 304 -7 4 -4 7 -124 7 -267 l-1 -261 94 0 94 0 140 141 141 141 -1
175 0 176 -107 110 c-59 60 -120 122 -137 138 l-30 29 -320 0 -321 0 0 240 c0
132 -4 243 -8 247 -3 4 -39 7 -78 8 l-71 1 -141 -140z"/>
<path d="M711 3255 c-9 -12 -7 -72 2 -81 3 -4 3 -14 -1 -23 -4 -9 -8 -43 -7
-76 l1 -60 187 -3 187 -2 1 -38 c1 -20 0 -52 -1 -69 -1 -28 2 -33 22 -33 41
-1 342 -1 376 -1 l32 1 0 76 0 75 -120 122 -121 121 -275 1 c-173 0 -278 -4
-283 -10z"/>
<path d="M2185 3245 c-131 -43 -401 -138 -405 -142 -3 -2 -5 -30 -5 -61 -1
-49 -3 -57 -20 -58 -11 -1 -32 -2 -46 -3 l-27 -1 0 -122 c-1 -158 -1 -158 51
-155 l41 2 1 -282 0 -282 140 -140 140 -140 248 -1 247 0 0 140 0 139 -152 3
-153 3 -1 65 c0 36 -3 71 -7 77 -4 7 -4 14 0 16 6 4 9 784 4 935 -1 25 -1 25
-56 7z"/>
<path d="M2384 3221 c-9 -6 -13 -100 -4 -102 3 -1 35 -3 73 -4 73 -2 83 8 51
53 -23 34 -100 68 -120 53z"/>
<path d="M2333 2979 c-17 -6 -26 -46 -12 -55 5 -2 6 -11 3 -19 -9 -23 -10
-126 -1 -132 4 -3 4 -10 0 -16 -5 -7 -8 -21 -8 -32 0 -19 7 -20 125 -20 l125
0 0 139 0 139 -108 1 c-59 1 -115 -2 -124 -5z"/>
<path d="M3317 2975 c-2 -5 -3 -68 -3 -140 l1 -130 128 -1 c71 0 130 3 133 8
7 10 6 259 -1 266 -10 10 -255 7 -258 -3z"/>
<path d="M4293 2980 c-17 -5 -19 -17 -18 -140 l0 -135 130 0 130 0 3 138 c2
106 0 137 -10 138 -59 4 -221 3 -235 -1z"/>
<path d="M2383 2556 c-5 -7 -8 -207 -4 -266 1 -12 17 -15 77 -16 l75 0 -2 51
c-1 28 0 56 4 61 3 6 29 10 57 9 l51 -2 -3 86 -3 86 -123 0 c-68 1 -126 -3
-129 -9z"/>
<path d="M3383 2561 c-5 -3 -9 -170 -9 -371 0 -498 26 -463 -349 -465 -271 -1
-306 3 -339 34 l-23 21 -23 -20 c-13 -11 -35 -23 -49 -27 -36 -9 -540 -9 -576
1 -20 5 -85 62 -191 168 l-162 160 -161 -161 c-96 -95 -173 -164 -189 -168
-15 -4 -230 -7 -479 -7 -379 0 -454 2 -469 15 -16 12 73 -97 117 -144 37 -40
70 -43 531 -42 437 0 443 1 478 22 19 12 100 87 180 168 l144 146 161 -161
c103 -103 171 -163 190 -168 17 -5 154 -8 306 -7 l276 0 34 26 c33 25 34 26
53 7 33 -31 69 -34 341 -33 285 0 281 0 331 64 18 25 19 45 19 398 0 241 4
373 10 374 6 1 21 2 35 3 25 1 25 2 25 86 l0 85 -102 1 c-56 0 -106 -2 -110
-5z"/>
<path d="M201 2281 c-5 -3 -8 -36 -7 -74 2 -49 8 -74 22 -92 10 -13 62 -76
114 -139 l95 -114 290 1 290 2 2 123 c3 110 1 122 -15 123 -9 0 -87 2 -172 2
l-155 2 -2 74 c-1 41 -4 80 -7 87 -4 11 -51 13 -225 12 -121 -1 -225 -4 -230
-7z"/>
</g>
</svg>
